# xmcd
#
# Track frame offsets: 
#        150
#        14694
#        27097
#        39747
#        56475
#        63541
#        74137
#        83134
#        94253
#        103426
#        113325
#
# Disc length: 1744 seconds
#
# Revision: 0
# Processed by: cddbd v1.5.2PL0 Copyright (c) Steve Scherf et al.
# Submitted via: ExactAudioCopyFreeDBPlugin 1.0
#
DISCID=9a06ce0b
DTITLE=The Quiet American - Vol. II
DYEAR=2011
DGENRE=Country
TTITLE0=I Will Be The One
TTITLE1=K.C. Jones
TTITLE2=Whiskey Johnny
TTITLE3=Carolina
TTITLE4=Spanish Fandango
TTITLE5=Old Greasy Coat
TTITLE6=Break The Hold
TTITLE7=Talk Is Cheap
TTITLE8=Wandering Bay
TTITLE9=When Death Comes (Creepin' In The Room)
TTITLE10=Black Jack Daisy
EXTD=
EXTT0=
EXTT1=
EXTT2=
EXTT3=
EXTT4=
EXTT5=
EXTT6=
EXTT7=
EXTT8=
EXTT9=
EXTT10=
PLAYORDER=
